<svg width="363" height="101" viewBox="0 0 363 101" fill="none" xmlns="http://www.w3.org/2000/svg">
<path d="M335.067 30.9772C340.434 30.9772 345.172 32.0673 349.281 34.2476C353.474 36.344 356.744 39.6145 359.092 44.0589C361.524 48.4195 362.74 54.038 362.74 60.9143V99.6564H343.117V63.9331C343.117 58.4824 341.985 54.4573 339.721 51.8577C337.457 49.2581 334.27 47.9583 330.161 47.9583C327.31 47.9583 324.752 48.6292 322.488 49.9709C320.224 51.2287 318.463 53.1575 317.205 55.757C315.947 58.3566 315.318 61.669 315.318 65.6941V99.6564H295.696V63.9331C295.696 58.4824 294.564 54.4573 292.3 51.8577C290.119 49.2581 286.975 47.9583 282.866 47.9583C280.014 47.9583 277.457 48.6292 275.193 49.9709C272.928 51.2287 271.167 53.1575 269.91 55.757C268.652 58.3566 268.023 61.669 268.023 65.6941V99.6564H248.4V31.9835H267.142V50.474L263.62 45.0652C265.968 40.4531 269.281 36.973 273.557 34.625C277.918 32.1931 282.866 30.9772 288.4 30.9772C294.606 30.9772 300.014 32.5705 304.627 35.757C309.323 38.8598 312.425 43.6396 313.935 50.0967L307.017 48.2099C309.281 42.9269 312.887 38.734 317.834 35.6313C322.866 32.5285 328.61 30.9772 335.067 30.9772Z" fill="white"/>
<path d="M204.343 100.663C198.557 100.663 192.981 99.9918 187.614 98.6501C182.331 97.2245 178.138 95.4635 175.035 93.3671L181.576 79.279C184.679 81.2078 188.327 82.8011 192.52 84.0589C196.796 85.2329 200.989 85.8199 205.098 85.8199C209.626 85.8199 212.813 85.2749 214.658 84.1847C216.587 83.0946 217.551 81.5851 217.551 79.6564C217.551 78.0631 216.796 76.8891 215.287 76.1344C213.861 75.2958 211.933 74.6669 209.501 74.2476C207.069 73.8283 204.385 73.409 201.45 72.9897C198.599 72.5705 195.706 72.0254 192.771 71.3545C189.836 70.5998 187.153 69.5097 184.721 68.0841C182.289 66.6585 180.318 64.7298 178.809 62.2979C177.383 59.8661 176.67 56.7214 176.67 52.864C176.67 48.5872 177.886 44.8136 180.318 41.5432C182.834 38.2728 186.44 35.7151 191.136 33.8703C195.832 31.9415 201.45 30.9772 207.991 30.9772C212.603 30.9772 217.299 31.4803 222.079 32.4866C226.859 33.4929 230.842 34.9604 234.029 36.8891L227.488 50.8514C224.218 48.9227 220.905 47.6229 217.551 46.952C214.281 46.1973 211.094 45.8199 207.991 45.8199C203.631 45.8199 200.444 46.4069 198.432 47.5809C196.419 48.7549 195.413 50.2644 195.413 52.1092C195.413 53.7864 196.125 55.0443 197.551 55.8828C199.06 56.7214 201.031 57.3923 203.463 57.8954C205.895 58.3985 208.536 58.8598 211.387 59.2791C214.322 59.6145 217.257 60.1596 220.193 60.9143C223.128 61.669 225.769 62.7591 228.117 64.1847C230.549 65.5264 232.52 67.4132 234.029 69.8451C235.538 72.1931 236.293 75.2958 236.293 79.1533C236.293 83.3461 235.035 87.0778 232.52 90.3482C230.004 93.5348 226.356 96.0505 221.576 97.8954C216.88 99.7403 211.136 100.663 204.343 100.663Z" fill="white"/>
<path d="M143.742 99.6564V31.9835H163.365V99.6564H143.742ZM153.554 22.5495C149.948 22.5495 147.013 21.5013 144.749 19.4049C142.484 17.3084 141.352 14.7088 141.352 11.6061C141.352 8.50339 142.484 5.90381 144.749 3.80738C147.013 1.71094 149.948 0.66272 153.554 0.66272C157.159 0.66272 160.094 1.66901 162.359 3.68159C164.623 5.61031 165.755 8.12604 165.755 11.2288C165.755 14.4992 164.623 17.2246 162.359 19.4049C160.178 21.5013 157.243 22.5495 153.554 22.5495Z" fill="white"/>
<path d="M90.0619 99.6564V31.9835H108.804V51.103L106.163 45.5684C108.175 40.7885 111.404 37.1826 115.848 34.7508C120.292 32.235 125.701 30.9772 132.074 30.9772V49.0904C131.236 49.0065 130.481 48.9646 129.81 48.9646C129.139 48.8807 128.427 48.8388 127.672 48.8388C122.305 48.8388 117.944 50.3902 114.59 53.4929C111.32 56.5118 109.685 61.2497 109.685 67.7067V99.6564H90.0619Z" fill="white"/>
<path d="M0.545532 99.6564V11.6061H38.6587C46.5413 11.6061 53.3338 12.9059 59.0361 15.5055C64.7384 18.0212 69.1409 21.669 72.2436 26.4489C75.3464 31.2288 76.8977 36.9311 76.8977 43.5558C76.8977 50.0967 75.3464 55.7571 72.2436 60.537C69.1409 65.3168 64.7384 69.0066 59.0361 71.6061C53.3338 74.1219 46.5413 75.3797 38.6587 75.3797H11.8663L20.9229 66.1973V99.6564H0.545532ZM20.9229 68.4615L11.8663 58.7759H37.5267C43.816 58.7759 48.512 57.4342 51.6147 54.7508C54.7174 52.0674 56.2688 48.3357 56.2688 43.5558C56.2688 38.6921 54.7174 34.9185 51.6147 32.2351C48.512 29.5516 43.816 28.2099 37.5267 28.2099H11.8663L20.9229 18.5244V68.4615Z" fill="white"/>
</svg>
